<svg width="20" height="21" viewBox="0 0 20 21" fill="none" xmlns="http://www.w3.org/2000/svg">
<path d="M5.83331 18C5.37498 18 4.98276 17.8369 4.65665 17.5108C4.32998 17.1842 4.16665 16.7917 4.16665 16.3333V5.5H3.33331V3.83333H7.49998V3H12.5V3.83333H16.6666V5.5H15.8333V16.3333C15.8333 16.7917 15.6703 17.1842 15.3441 17.5108C15.0175 17.8369 14.625 18 14.1666 18H5.83331ZM14.1666 5.5H5.83331V16.3333H14.1666V5.5Z" fill="white"/>
<path d="M9.99998 12.2083L8.37498 13.8333L7.49998 12.9583L9.12498 11.3333L7.49998 9.70833L8.37498 8.83333L9.99998 10.4583L11.625 8.83333L12.5 9.70833L10.875 11.3333L12.5 12.9583L11.625 13.8333L9.99998 12.2083Z" fill="white"/>
</svg>
